<?xml version="1.0" standalone="no"?>
<!DOCTYPE svg PUBLIC "-//W3C//DTD SVG 20010904//EN"
 "http://www.w3.org/TR/2001/REC-SVG-20010904/DTD/svg10.dtd">
<svg version="1.0" xmlns="http://www.w3.org/2000/svg"
 width="668.000000pt" height="668.000000pt" viewBox="0 0 668.000000 668.000000"
 preserveAspectRatio="xMidYMid meet">
<metadata>
Created by potrace 1.14, written by Peter Selinger 2001-2017
</metadata>
<g transform="translate(0.000000,668.000000) scale(0.100000,-0.100000)"
fill="#000000" stroke="none">
<path d="M3217 6674 c-1 -1 -49 -4 -107 -8 -58 -3 -116 -8 -130 -10 -14 -3
-47 -7 -75 -10 -89 -11 -118 -15 -195 -31 -41 -8 -85 -17 -97 -20 -58 -10
-260 -68 -349 -98 -490 -169 -902 -425 -1270 -792 -393 -391 -664 -832 -833
-1355 -31 -98 -85 -308 -95 -370 -3 -19 -10 -57 -15 -85 -5 -27 -12 -77 -16
-110 -4 -33 -8 -71 -11 -85 -22 -129 -21 -607 1 -720 2 -13 7 -54 11 -90 3
-36 7 -67 9 -70 2 -3 6 -26 10 -50 3 -25 8 -52 10 -60 2 -8 7 -28 10 -45 43
-245 170 -603 307 -865 54 -103 193 -334 219 -364 6 -6 31 -40 57 -76 103
-143 163 -212 336 -385 202 -202 390 -349 634 -496 189 -114 446 -233 632
-294 30 -10 62 -20 70 -23 8 -3 20 -6 25 -8 6 -1 33 -10 60 -18 50 -16 233
-60 290 -70 286 -48 397 -59 630 -59 270 0 422 16 725 77 175 35 436 121 634
208 101 44 286 140 328 169 14 11 29 19 33 19 3 0 33 18 65 40 32 22 63 40 69
40 5 0 11 3 13 8 2 4 35 30 73 57 241 169 444 362 686 653 146 175 347 514
449 757 4 11 15 36 23 55 82 189 185 582 212 809 4 30 8 63 11 74 22 116 22
576 -1 732 -2 17 -6 50 -9 75 -4 40 -27 174 -41 240 -3 14 -7 36 -10 50 -2 14
-21 83 -40 155 -202 734 -644 1367 -1281 1833 -39 29 -77 52 -83 52 -6 0 -11
4 -11 8 0 5 -10 14 -22 20 -13 7 -39 22 -59 35 -448 282 -970 451 -1519 493
-73 5 -358 12 -363 8z"/>
</g>
</svg>
